<svg width="54" height="54" viewBox="0 0 54 54" fill="none" xmlns="http://www.w3.org/2000/svg">
<path fill-rule="evenodd" clip-rule="evenodd" d="M0 26.9956V53.9912L27 53.9956L54 54V27V0H27H0V26.9956ZM52.7505 3.18111C52.7505 3.21491 52.6675 3.30882 52.1668 3.84123C51.358 4.70139 51.2432 4.81774 50.9974 5.02686C50.8569 5.14642 50.7408 5.26869 50.7394 5.29858C50.738 5.32847 50.5998 5.4752 50.4323 5.62465C50.0396 5.97484 49.6483 6.36612 49.2736 6.78289C49.1093 6.96571 48.9553 7.11613 48.9314 7.11722C48.8704 7.11988 47.8068 8.20606 47.8068 8.26573C47.8068 8.29263 47.786 8.3147 47.7605 8.3147C47.7053 8.3147 46.0063 9.96383 44.892 11.0989C44.7081 11.2863 44.4462 11.5373 44.31 11.6569C44.1737 11.7764 44.0614 11.8955 44.0603 11.9214C44.0581 11.9734 43.2798 12.7415 43.0254 12.9425C42.9367 13.0125 42.8629 13.0943 42.8612 13.1242C42.8596 13.1541 42.7236 13.3008 42.5589 13.4502C42.3942 13.5997 42.1185 13.8565 41.9462 14.0209C41.7738 14.1853 41.5674 14.3683 41.4874 14.4277C41.4075 14.4871 41.3421 14.5677 41.3421 14.6069C41.3421 14.6775 41.1052 14.9447 41.0427 14.9447C41.0084 14.9447 40.6314 15.33 40.0382 15.9711C39.844 16.181 39.6546 16.3539 39.6172 16.3552C39.5799 16.3566 39.5493 16.3775 39.5493 16.4016C39.5493 16.4553 38.5104 17.5038 38.1832 17.7803C37.7306 18.1628 37.7022 18.1914 37.701 18.2661C37.7004 18.3074 37.6117 18.4146 37.504 18.5043C37.3963 18.5939 37.1773 18.7957 37.0174 18.9526C36.8575 19.1095 36.7107 19.2379 36.6911 19.2379C36.6441 19.2379 36.3986 19.5247 36.3984 19.5796C36.3984 19.6031 36.2945 19.7296 36.1675 19.8606C35.7919 20.2482 35.6922 20.3712 35.6922 20.4468C35.6922 20.4861 35.6433 20.5534 35.5835 20.5965C35.5237 20.6396 35.4748 20.7184 35.4748 20.7716C35.4748 20.8247 35.4534 20.8683 35.4272 20.8683C35.401 20.8683 35.3093 21.0027 35.2235 21.167C35.1376 21.3313 35.0491 21.4658 35.0267 21.4659C35.0042 21.466 34.9859 21.515 34.9859 21.5747C34.9859 21.6345 34.9615 21.6834 34.9316 21.6834C34.9017 21.6834 34.8773 21.7446 34.8773 21.8193C34.8773 21.894 34.8528 21.9552 34.8229 21.9552C34.7931 21.9552 34.7686 22.0163 34.7686 22.091C34.7686 22.1657 34.7468 22.2269 34.7202 22.2269C34.6936 22.2269 34.6583 22.3063 34.6418 22.4035C34.5784 22.7765 34.4718 23.1793 34.4284 23.2099C34.3674 23.253 34.4129 24.9438 34.4858 25.3453C34.5177 25.521 34.57 25.691 34.6019 25.723C34.6338 25.7549 34.66 25.8602 34.66 25.9571C34.66 26.054 34.6844 26.1484 34.7143 26.1668C34.7442 26.1853 34.7686 26.2601 34.7686 26.3331C34.7686 26.4061 34.7931 26.4657 34.8229 26.4657C34.8528 26.4657 34.8773 26.5269 34.8773 26.6016C34.8773 26.6763 34.9017 26.7375 34.9316 26.7375C34.9615 26.7375 34.9859 26.8108 34.9859 26.9005C34.9859 26.9902 35.0061 27.0635 35.0307 27.0635C35.0805 27.0635 35.3662 27.6557 35.3662 27.7589C35.3662 27.7949 35.3906 27.8244 35.4205 27.8244C35.4504 27.8244 35.4748 27.861 35.4748 27.9059C35.4748 27.9507 35.4993 27.9874 35.5292 27.9874C35.5591 27.9874 35.5835 28.0241 35.5835 28.0689C35.5835 28.1137 35.6079 28.1504 35.6378 28.1504C35.6677 28.1504 35.6922 28.1993 35.6922 28.2591C35.6922 28.3189 35.7105 28.3681 35.7329 28.3684C35.7553 28.3688 35.8204 28.4666 35.8775 28.5858C35.9346 28.705 36.0018 28.8025 36.0269 28.8025C36.0519 28.8025 36.0724 28.8346 36.0724 28.8738C36.0724 28.913 36.1213 28.9976 36.1811 29.0618C36.2408 29.1259 36.2897 29.2161 36.2897 29.2622C36.2897 29.3083 36.3142 29.346 36.3441 29.346C36.3739 29.346 36.3984 29.3827 36.3984 29.4275C36.3984 29.4723 36.4178 29.509 36.4415 29.509C36.4652 29.509 36.5569 29.6308 36.6452 29.7797C36.7335 29.9285 36.8241 30.0508 36.8466 30.0514C36.869 30.052 36.8873 30.1014 36.8873 30.1612C36.8873 30.2209 36.9118 30.2698 36.9417 30.2698C36.9715 30.2698 36.996 30.3065 36.996 30.3514C36.996 30.3962 37.0204 30.4329 37.0503 30.4329C37.0802 30.4329 37.1046 30.4696 37.1046 30.5144C37.1046 30.5592 37.1291 30.5959 37.159 30.5959C37.1888 30.5959 37.2133 30.6265 37.2133 30.6638C37.2134 30.7226 37.2829 30.821 37.5381 31.1235C37.5686 31.1596 37.5936 31.2214 37.5936 31.2609C37.5936 31.3004 37.6425 31.368 37.7022 31.4111C37.762 31.4542 37.8109 31.5329 37.8109 31.5861C37.8109 31.6393 37.8353 31.6828 37.8652 31.6828C37.8951 31.6828 37.9195 31.7101 37.9195 31.7435C37.9195 31.7768 38.0051 31.9207 38.1097 32.0632C38.2142 32.2057 38.2998 32.3496 38.2998 32.383C38.2998 32.4163 38.3242 32.4436 38.3541 32.4436C38.384 32.4436 38.4085 32.4803 38.4085 32.5251C38.4085 32.57 38.4329 32.6067 38.4628 32.6067C38.4927 32.6067 38.5171 32.6433 38.5171 32.6882C38.5171 32.733 38.5415 32.7697 38.5714 32.7697C38.6013 32.7697 38.6258 32.7968 38.6258 32.8298C38.6258 32.8628 38.6873 32.9667 38.7624 33.0608C38.9595 33.3073 38.9706 33.3237 39.0604 33.5033C39.1052 33.593 39.1724 33.6987 39.2097 33.7382C39.247 33.7776 39.3436 33.9244 39.4243 34.0642C39.505 34.2041 39.6028 34.3381 39.6417 34.362C39.6805 34.3859 39.7123 34.4409 39.7123 34.4843C39.7123 34.5276 39.7367 34.5631 39.7666 34.5631C39.7965 34.5631 39.8209 34.6066 39.8209 34.6597C39.8209 34.7129 39.8698 34.7917 39.9296 34.8348C39.9893 34.8779 40.0382 34.9455 40.0382 34.9851C40.0382 35.0247 40.0932 35.116 40.1605 35.1879C40.3764 35.4189 40.4185 35.4806 40.4185 35.5662C40.4185 35.6122 40.443 35.6499 40.4728 35.6499C40.5027 35.6499 40.5272 35.6866 40.5272 35.7315C40.5272 35.7763 40.5516 35.813 40.5815 35.813C40.6114 35.813 40.6358 35.8497 40.6358 35.8945C40.6358 35.9393 40.6603 35.976 40.6901 35.976C40.72 35.976 40.7445 36.0066 40.7445 36.0439C40.7446 36.0813 40.8052 36.1852 40.8793 36.2749C41.0789 36.5166 41.0909 36.5336 41.1747 36.6961C41.217 36.7783 41.2721 36.8455 41.2969 36.8455C41.3217 36.8455 41.3421 36.8944 41.3421 36.9542C41.3421 37.014 41.3665 37.0629 41.3964 37.0629C41.4263 37.0629 41.4507 37.0996 41.4507 37.1444C41.4507 37.1893 41.47 37.2259 41.4936 37.2259C41.5172 37.2259 41.6079 37.3482 41.6952 37.4977C41.7824 37.6471 41.8731 37.7694 41.8967 37.7694C41.9204 37.7694 41.9396 37.8061 41.9396 37.8509C41.9396 37.8957 41.9641 37.9324 41.994 37.9324C42.0238 37.9324 42.0483 37.9691 42.0483 38.0139C42.0483 38.0588 42.0727 38.0954 42.1026 38.0954C42.1325 38.0954 42.1569 38.1321 42.1569 38.177C42.1569 38.2218 42.1814 38.2585 42.2113 38.2585C42.2411 38.2585 42.2656 38.2952 42.2656 38.34C42.2656 38.3848 42.29 38.4215 42.3199 38.4215C42.3498 38.4215 42.3742 38.459 42.3742 38.5047C42.3742 38.5505 42.4109 38.602 42.4557 38.6192C42.5006 38.6364 42.5372 38.6914 42.5372 38.7414C42.5372 38.7914 42.5861 38.8675 42.6459 38.9106C42.7056 38.9537 42.7545 39.0271 42.7545 39.0736C42.7545 39.1202 42.8034 39.1936 42.8632 39.2367C42.9229 39.2798 42.9718 39.3473 42.9718 39.3868C42.9718 39.4607 43.0185 39.5269 43.2299 39.7531C43.2971 39.825 43.3521 39.9217 43.3521 39.9679C43.3521 40.0141 43.3766 40.0518 43.4064 40.0518C43.4363 40.0518 43.4608 40.1008 43.4608 40.1605C43.4608 40.2684 43.4245 40.2692 39.0036 40.2692H34.5464L34.4131 40.1358C34.3397 40.0624 34.2797 39.9701 34.2797 39.9304C34.2797 39.8909 34.2308 39.8232 34.171 39.7801C34.1113 39.737 34.0624 39.6583 34.0624 39.6051C34.0624 39.5519 34.0379 39.5084 34.008 39.5084C33.9782 39.5084 33.9537 39.4707 33.9537 39.4246C33.9537 39.3785 33.9288 39.3112 33.8983 39.2752C33.643 38.9726 33.5735 38.8743 33.5735 38.8155C33.5735 38.7782 33.549 38.7476 33.5191 38.7476C33.4892 38.7476 33.4648 38.7109 33.4648 38.6661C33.4648 38.6212 33.4403 38.5845 33.4105 38.5845C33.3806 38.5845 33.3561 38.5479 33.3561 38.503C33.3561 38.4582 33.3317 38.4215 33.3018 38.4215C33.2719 38.4215 33.2475 38.3971 33.2475 38.3673C33.2475 38.3375 33.1619 38.1939 33.0573 38.0483C32.9528 37.9027 32.8672 37.7559 32.8672 37.7222C32.8672 37.6884 32.8428 37.6607 32.8129 37.6607C32.783 37.6607 32.7586 37.624 32.7586 37.5792C32.7586 37.5343 32.7341 37.4977 32.7042 37.4977C32.6743 37.4977 32.6499 37.461 32.6499 37.4161C32.6499 37.3713 32.6255 37.3346 32.5956 37.3346C32.5657 37.3346 32.5412 37.3102 32.5412 37.2804C32.5412 37.2181 32.1561 36.6645 32.0938 36.6372C32.0709 36.6272 32.0523 36.5722 32.0523 36.5149C32.0523 36.4576 32.0279 36.4108 31.998 36.4108C31.9681 36.4108 31.9437 36.3741 31.9437 36.3293C31.9437 36.2844 31.9192 36.2477 31.8893 36.2477C31.8595 36.2477 31.835 36.2223 31.835 36.1911C31.835 36.1378 31.7925 36.0763 31.6313 35.8965C31.594 35.8548 31.5634 35.7877 31.5634 35.7473C31.5634 35.707 31.5145 35.6387 31.4547 35.5956C31.395 35.5525 31.3461 35.4738 31.3461 35.4206C31.3461 35.3674 31.3255 35.3239 31.3005 35.3239C31.2754 35.3239 31.2266 35.2618 31.1921 35.186C31.1575 35.1101 31.1042 35.0184 31.0736 34.9822C30.8185 34.6801 30.7486 34.5812 30.7485 34.5223C30.7485 34.485 30.724 34.4544 30.6942 34.4544C30.6643 34.4544 30.6398 34.4144 30.6398 34.3656C30.6398 34.3168 30.5958 34.2374 30.542 34.189C30.4882 34.1407 30.4037 34.0142 30.3544 33.908C30.305 33.8019 30.2146 33.6697 30.1535 33.6143C30.0923 33.559 30.0423 33.4808 30.0423 33.4406C30.0423 33.4004 30.0178 33.3675 29.9879 33.3675C29.958 33.3675 29.9336 33.3308 29.9336 33.286C29.9336 33.2411 29.9092 33.2044 29.8793 33.2044C29.8494 33.2044 29.825 33.1576 29.825 33.1003C29.825 33.043 29.8063 32.988 29.7835 32.978C29.7212 32.9508 29.336 32.3972 29.336 32.3348C29.336 32.305 29.3116 32.2806 29.2817 32.2806C29.2518 32.2806 29.2274 32.2439 29.2274 32.1991C29.2274 32.1542 29.2029 32.1176 29.173 32.1176C29.1432 32.1176 29.1187 32.0686 29.1187 32.0089C29.1187 31.9491 29.0959 31.9002 29.068 31.9002C29.0402 31.9002 29.0028 31.8542 28.985 31.798C28.9563 31.7078 28.8986 31.6259 28.6851 31.3726C28.6547 31.3365 28.6298 31.2747 28.6298 31.2352C28.6298 31.1957 28.5809 31.1281 28.5211 31.085C28.4614 31.0419 28.4125 30.9632 28.4125 30.91C28.4125 30.8568 28.388 30.8133 28.3581 30.8133C28.3283 30.8133 28.3038 30.7734 28.3038 30.7246C28.3038 30.6757 28.2593 30.5963 28.2049 30.5479C28.1505 30.4996 28.0588 30.3745 28.0012 30.2698C27.9435 30.1652 27.8536 30.0401 27.8013 29.9918C27.749 29.9434 27.7062 29.864 27.7062 29.8151C27.7062 29.7663 27.6818 29.7264 27.6519 29.7264C27.622 29.7264 27.5976 29.6897 27.5976 29.6449C27.5976 29.6001 27.577 29.5634 27.5518 29.5634C27.5266 29.5634 27.46 29.4778 27.4036 29.3732C27.3473 29.2686 27.287 29.183 27.2694 29.183C27.2519 29.183 27.204 29.0974 27.163 28.9928C27.122 28.8881 27.0685 28.8025 27.0442 28.8025C27.0199 28.8025 27 28.7659 27 28.721C27 28.6762 26.9756 28.6395 26.9457 28.6395C26.9158 28.6395 26.8913 28.6028 26.8913 28.558C26.8913 28.5132 26.8669 28.4765 26.837 28.4765C26.8071 28.4765 26.7827 28.4296 26.7827 28.3723C26.7827 28.315 26.7631 28.26 26.7392 28.25C26.667 28.22 26.4024 27.7094 26.4024 27.6001C26.4024 27.5441 26.378 27.4983 26.3481 27.4983C26.3182 27.4983 26.2938 27.4494 26.2938 27.3896C26.2938 27.3298 26.2693 27.2809 26.2394 27.2809C26.2096 27.2809 26.1851 27.2075 26.1851 27.1179C26.1851 27.0282 26.1607 26.9548 26.1308 26.9548C26.1009 26.9548 26.0765 26.8815 26.0765 26.7918C26.0765 26.7021 26.0568 26.6288 26.0328 26.6288C25.9849 26.6288 25.8672 26.182 25.8254 25.8408C25.8106 25.7212 25.7746 25.5742 25.7451 25.514C25.6766 25.3741 25.7151 23.3835 25.7934 23.0149C25.9156 22.4397 25.981 22.1978 26.0278 22.1481C26.0546 22.1197 26.0765 22.0417 26.0765 21.9747C26.0765 21.9077 26.1009 21.8378 26.1308 21.8193C26.1607 21.8008 26.1851 21.726 26.1851 21.6531C26.1851 21.5801 26.2096 21.5204 26.2394 21.5204C26.2693 21.5204 26.2938 21.447 26.2938 21.3574C26.2938 21.2677 26.3182 21.1943 26.3481 21.1943C26.378 21.1943 26.4024 21.1454 26.4024 21.0856C26.4024 21.0259 26.4269 20.977 26.4567 20.977C26.4866 20.977 26.5111 20.9497 26.5111 20.9163C26.5111 20.8829 26.5966 20.739 26.7012 20.5965C26.8058 20.4541 26.8913 20.3101 26.8913 20.2768C26.8913 20.2434 26.9158 20.2161 26.9457 20.2161C26.9756 20.2161 27 20.1726 27 20.1195C27 20.0662 27.0489 19.9875 27.1087 19.9444C27.1684 19.9013 27.2173 19.8359 27.2173 19.799C27.2173 19.7339 27.2688 19.669 27.6383 19.2691C27.7355 19.164 27.8149 19.063 27.8149 19.0448C27.8149 18.967 29.2727 17.5893 29.6012 17.3567C29.723 17.2706 29.8232 17.1695 29.8238 17.1321C29.8244 17.0947 29.8456 17.0642 29.871 17.0642C29.9147 17.0642 29.9941 17.0021 30.3209 16.7125C30.3995 16.6429 30.5202 16.5557 30.5891 16.5188C30.6581 16.4819 30.7592 16.41 30.8139 16.359C30.8686 16.3081 30.9797 16.2319 31.0609 16.1898C31.142 16.1476 31.2797 16.0458 31.3668 15.9637C31.4539 15.8815 31.5521 15.8142 31.585 15.8142C31.6179 15.8141 31.7159 15.753 31.8027 15.6783C31.8896 15.6036 31.9801 15.5425 32.004 15.5425C32.0279 15.5425 32.1085 15.4814 32.1832 15.4066C32.2579 15.3319 32.3446 15.2708 32.3758 15.2708C32.4071 15.2708 32.4326 15.2463 32.4326 15.2164C32.4326 15.1866 32.4725 15.1621 32.5213 15.1621C32.5701 15.1621 32.6495 15.1191 32.6979 15.0666C32.7462 15.0141 32.8591 14.9348 32.9487 14.8904C33.0383 14.846 33.1512 14.7666 33.1995 14.7141C33.2479 14.6616 33.3219 14.6187 33.3641 14.6187C33.4063 14.6187 33.476 14.5697 33.5191 14.51C33.5622 14.4502 33.6287 14.4013 33.6669 14.4013C33.7051 14.4013 33.7364 14.3768 33.7364 14.3469C33.7364 14.317 33.7763 14.2926 33.8251 14.2926C33.8739 14.2926 33.9533 14.2496 34.0017 14.197C34.1033 14.0865 34.6427 13.7491 34.7179 13.7491C34.7458 13.7491 34.7686 13.7286 34.7686 13.7035C34.7686 13.6784 34.8236 13.6286 34.8908 13.5927C35.132 13.464 35.5412 13.2003 35.5835 13.1464C35.5984 13.1273 35.7573 13.0302 35.9366 12.9305C36.1159 12.8309 36.2748 12.7328 36.2897 12.7127C36.3047 12.6926 36.4452 12.607 36.6021 12.5226C36.759 12.4382 36.8873 12.3495 36.8873 12.3255C36.8873 12.3015 36.9308 12.2818 36.984 12.2818C37.0372 12.2818 37.1159 12.2329 37.159 12.1732C37.202 12.1134 37.2761 12.0645 37.3237 12.0645C37.3712 12.0645 37.4626 12.0156 37.5267 11.9558C37.5908 11.896 37.6756 11.8471 37.7151 11.8471C37.7546 11.8471 37.8221 11.7982 37.8652 11.7384C37.9083 11.6786 37.987 11.6297 38.0402 11.6297C38.0933 11.6297 38.1368 11.6053 38.1368 11.5754C38.1368 11.5455 38.1735 11.521 38.2183 11.521C38.2631 11.521 38.2998 11.4966 38.2998 11.4667C38.2998 11.4368 38.3433 11.4123 38.3964 11.4123C38.4496 11.4123 38.5283 11.3634 38.5714 11.3036C38.6145 11.2439 38.7001 11.195 38.7616 11.195C38.8231 11.195 38.9086 11.146 38.9517 11.0863C38.9948 11.0265 39.0735 10.9776 39.1267 10.9776C39.1798 10.9776 39.2233 10.957 39.2233 10.9318C39.2233 10.9066 39.3334 10.8294 39.4678 10.7602C39.6023 10.691 39.7123 10.6138 39.7123 10.5886C39.7123 10.5634 39.7612 10.5428 39.8209 10.5428C39.8807 10.5428 39.9296 10.5222 39.9296 10.497C39.9296 10.4718 40.0396 10.3946 40.174 10.3254C40.3085 10.2563 40.4185 10.179 40.4185 10.1539C40.4185 10.1287 40.4674 10.1081 40.5272 10.1081C40.5869 10.1081 40.6358 10.0876 40.6358 10.0626C40.6358 10.0376 40.7947 9.93389 40.9889 9.83221C41.1832 9.73048 41.3421 9.62869 41.3421 9.60598C41.3421 9.58321 41.3798 9.56462 41.4258 9.56462C41.4719 9.56462 41.5621 9.51571 41.6262 9.45593C41.6903 9.39615 41.7871 9.34724 41.8413 9.34724C41.8954 9.34724 41.9399 9.32887 41.9401 9.30648C41.9403 9.28409 42.1237 9.16812 42.3475 9.04878C42.5714 8.9295 42.7545 8.81336 42.7545 8.79065C42.7545 8.76799 42.8034 8.74945 42.8632 8.74945C42.9229 8.74945 42.9718 8.725 42.9718 8.69511C42.9718 8.66522 42.9947 8.64077 43.0226 8.64077C43.0733 8.64077 43.6268 8.316 43.6781 8.25617C43.693 8.23872 43.7847 8.18987 43.8818 8.14764C43.9789 8.10536 44.0583 8.05232 44.0583 8.02972C44.0583 8.00711 44.1072 7.98863 44.167 7.98863C44.2268 7.98863 44.2757 7.96418 44.2757 7.93429C44.2757 7.9044 44.3245 7.87994 44.3843 7.87994C44.4441 7.87994 44.493 7.85549 44.493 7.8256C44.493 7.79571 44.5296 7.77125 44.5744 7.77125C44.6193 7.77125 44.6559 7.7468 44.6559 7.71691C44.6559 7.68702 44.6995 7.66257 44.7526 7.66257C44.8058 7.66257 44.8845 7.61366 44.9276 7.55388C44.9706 7.4941 45.0494 7.44519 45.1026 7.44519C45.1557 7.44519 45.1992 7.4253 45.1992 7.40101C45.1992 7.37666 45.2848 7.32318 45.3893 7.28215C45.4939 7.24112 45.5795 7.18765 45.5795 7.1633C45.5795 7.13901 45.6284 7.11912 45.6881 7.11912C45.7479 7.11912 45.7968 7.09467 45.7968 7.06478C45.7968 7.03489 45.8335 7.01043 45.8783 7.01043C45.9231 7.01043 45.9598 6.98598 45.9598 6.95609C45.9598 6.9262 46.0087 6.90174 46.0684 6.90174C46.1282 6.90174 46.1771 6.87729 46.1771 6.8474C46.1771 6.81751 46.226 6.79305 46.2857 6.79305C46.3455 6.79305 46.3944 6.77246 46.3944 6.74724C46.3944 6.72208 46.5044 6.64486 46.6388 6.57568C46.7733 6.5065 46.8833 6.42927 46.8833 6.40411C46.8833 6.3789 46.9322 6.3583 46.992 6.3583C47.0517 6.3583 47.1006 6.33384 47.1006 6.30395C47.1006 6.27407 47.1434 6.24907 47.1957 6.24841C47.2479 6.24776 47.3519 6.1994 47.4266 6.14092C47.5013 6.08245 47.593 6.03408 47.6303 6.03343C47.6677 6.03278 47.6982 6.00778 47.6982 5.97789C47.6982 5.948 47.7471 5.92354 47.8068 5.92354C47.8666 5.92354 47.9155 5.90322 47.9155 5.87838C47.9155 5.85355 47.9825 5.7985 48.0643 5.75611C48.4657 5.54819 49.1953 5.14234 49.2193 5.11365C49.2343 5.09582 49.3993 5.00947 49.586 4.92176C49.7728 4.8341 49.9258 4.74851 49.926 4.73155C49.9262 4.71465 49.9812 4.67411 50.0482 4.6415C50.2898 4.52396 50.8225 4.22017 50.8491 4.18479C50.864 4.1649 50.9557 4.11404 51.0528 4.07181C51.15 4.02953 51.2294 3.97649 51.2294 3.95388C51.2294 3.93128 51.2783 3.9128 51.338 3.9128C51.3978 3.9128 51.4467 3.89291 51.4467 3.86862C51.4467 3.84427 51.5322 3.7908 51.6368 3.74977C51.7414 3.70874 51.827 3.65526 51.827 3.63091C51.827 3.60662 51.8647 3.58673 51.9107 3.58673C51.9568 3.58673 52.047 3.53782 52.1111 3.47804C52.1752 3.41826 52.2598 3.36935 52.299 3.36935C52.3382 3.36935 52.3702 3.3449 52.3702 3.31501C52.3702 3.28512 52.4069 3.26067 52.4517 3.26067C52.4965 3.26067 52.5332 3.23621 52.5332 3.20632C52.5332 3.17643 52.5821 3.15198 52.6419 3.15198C52.7016 3.15198 52.7505 3.16507 52.7505 3.18111ZM20.954 14.116C21.0064 14.1981 21.117 14.3302 21.1997 14.4095C21.2824 14.4887 21.3501 14.5815 21.3501 14.6158C21.3501 14.65 21.4051 14.7377 21.4723 14.8107C21.7957 15.162 21.839 15.2168 21.839 15.2742C21.839 15.3081 21.9124 15.4044 22.002 15.4882C22.0917 15.5719 22.165 15.6662 22.165 15.6977C22.165 15.7292 22.22 15.8158 22.2872 15.8902C22.6126 16.2502 22.6539 16.3044 22.6539 16.3709C22.6539 16.4102 22.7028 16.4776 22.7626 16.5207C22.8223 16.5638 22.8712 16.6179 22.8712 16.641C22.8712 16.6853 23.0339 16.8875 23.2379 17.0969C23.3052 17.1658 23.3602 17.2478 23.3602 17.2791C23.3602 17.3103 23.3846 17.3359 23.4145 17.3359C23.4444 17.3359 23.4688 17.3672 23.4688 17.4054C23.4688 17.4436 23.5177 17.5102 23.5775 17.5533C23.6372 17.5963 23.6861 17.6611 23.6861 17.6972C23.6861 17.7332 23.7472 17.8108 23.8219 17.8696C23.8966 17.9284 23.9577 18.0103 23.9577 18.0518C23.9577 18.0932 24.0066 18.1623 24.0664 18.2054C24.1262 18.2485 24.1751 18.3161 24.1751 18.3557C24.1751 18.3953 24.2301 18.4841 24.2973 18.5531C24.6292 18.8937 24.6717 18.9663 24.588 19.05C24.5444 19.0936 24.4826 19.1292 24.4505 19.1292C24.4185 19.1292 24.3924 19.1728 24.3924 19.2259C24.3924 19.2791 24.3435 19.3579 24.2837 19.401C24.2239 19.4441 24.1751 19.5228 24.1751 19.576C24.1751 19.6292 24.1506 19.6727 24.1207 19.6727C24.0908 19.6727 24.0664 19.7216 24.0664 19.7814C24.0664 19.8412 24.0472 19.8901 24.0238 19.8901C24.0003 19.8901 23.9087 20.0364 23.8201 20.2153C23.7315 20.3941 23.6406 20.5408 23.6182 20.5413C23.5958 20.5418 23.5775 20.5911 23.5775 20.6509C23.5775 20.7107 23.553 20.7596 23.5231 20.7596C23.4933 20.7596 23.4688 20.8329 23.4688 20.9226C23.4688 21.0123 23.4444 21.0856 23.4145 21.0856C23.3846 21.0856 23.3602 21.159 23.3602 21.2487C23.3602 21.3383 23.3357 21.4117 23.3058 21.4117C23.276 21.4117 23.2515 21.4836 23.2515 21.5715C23.2515 21.6595 23.2271 21.7465 23.1972 21.7649C23.1673 21.7834 23.1429 21.8598 23.1429 21.9348C23.1429 22.0097 23.1185 22.1166 23.0887 22.1722C23.0589 22.2279 23.0226 22.3669 23.0081 22.4811C22.9935 22.5953 22.9559 22.7509 22.9246 22.8267C22.8368 23.0392 22.8856 25.7126 22.9837 26.0672C23.0265 26.2217 23.0798 26.3664 23.1022 26.3888C23.1245 26.4112 23.1429 26.4747 23.1429 26.53C23.1429 26.6759 23.2709 27.0635 23.319 27.0635C23.3417 27.0635 23.3602 27.1369 23.3602 27.2266C23.3602 27.3162 23.3846 27.3896 23.4145 27.3896C23.4444 27.3896 23.4688 27.463 23.4688 27.5526C23.4688 27.6423 23.4933 27.7157 23.5231 27.7157C23.553 27.7157 23.5775 27.7646 23.5775 27.8244C23.5775 27.8841 23.6019 27.933 23.6318 27.933C23.6617 27.933 23.6861 27.9802 23.6861 28.0379C23.6861 28.0955 23.7228 28.1793 23.7676 28.2242C23.8124 28.269 23.8491 28.3441 23.8491 28.3911C23.8491 28.4381 23.8735 28.4765 23.9034 28.4765C23.9333 28.4765 23.9577 28.5254 23.9577 28.5852C23.9577 28.645 23.9822 28.6939 24.0121 28.6939C24.042 28.6939 24.0664 28.7428 24.0664 28.8025C24.0664 28.8623 24.0908 28.9112 24.1207 28.9112C24.1506 28.9112 24.1751 28.9479 24.1751 28.9928C24.1751 29.0376 24.1935 29.0743 24.2161 29.0743C24.2387 29.0743 24.291 29.1537 24.3324 29.2509C24.3737 29.3481 24.4618 29.4886 24.5282 29.5634C24.5945 29.6381 24.6826 29.7787 24.724 29.8759C24.7653 29.973 24.8176 30.0525 24.8402 30.0525C24.8628 30.0525 24.8813 30.1014 24.8813 30.1612C24.8813 30.2209 24.9007 30.2698 24.9244 30.2698C24.9481 30.2698 25.0398 30.3916 25.1281 30.5405C25.2164 30.6893 25.307 30.8116 25.3295 30.8122C25.3519 30.8128 25.3702 30.8568 25.3702 30.91C25.3702 30.9632 25.4191 31.0419 25.4789 31.085C25.5386 31.1281 25.5875 31.2069 25.5875 31.2601C25.5875 31.3132 25.6058 31.357 25.6283 31.3573C25.6507 31.3577 25.7157 31.4555 25.7728 31.5747C25.8299 31.6939 25.8942 31.7915 25.9157 31.7915C25.9371 31.7915 25.985 31.8649 26.0221 31.9545C26.0592 32.0442 26.1111 32.1176 26.1374 32.1176C26.1637 32.1176 26.1851 32.1542 26.1851 32.1991C26.1851 32.2439 26.2096 32.2806 26.2394 32.2806C26.2693 32.2806 26.2938 32.3173 26.2938 32.3621C26.2938 32.4069 26.3182 32.4436 26.3481 32.4436C26.378 32.4436 26.4024 32.4686 26.4024 32.4991C26.4024 32.5295 26.4635 32.6513 26.5382 32.7697C26.6129 32.8881 26.674 33.0502 26.674 33.13C26.674 33.3406 26.4145 33.8386 26.1604 34.1154C25.7428 34.5705 25.2124 35.1065 25.1797 35.1065C25.1617 35.1065 25.0029 35.2532 24.827 35.4326C24.651 35.6119 24.4929 35.7586 24.4757 35.7586C24.4584 35.7586 24.3123 35.887 24.151 36.0439C23.9897 36.2009 23.6582 36.5127 23.4142 36.7368C23.1703 36.961 22.8782 37.23 22.7651 37.3346C22.4192 37.6547 22.2752 37.7694 22.2189 37.7694C22.1893 37.7694 22.165 37.7922 22.165 37.8201C22.165 37.848 22.1161 37.8863 22.0563 37.9052C21.9966 37.9242 21.947 37.9687 21.9462 38.004C21.9454 38.0394 21.8444 38.1294 21.7216 38.2041C21.5989 38.2789 21.3549 38.4806 21.1795 38.6525C21.004 38.8244 20.8416 38.965 20.8185 38.965C20.7954 38.965 20.7413 39.0139 20.6982 39.0736C20.6551 39.1334 20.5862 39.1823 20.545 39.1823C20.5039 39.1823 20.4016 39.2557 20.3179 39.3454C20.2342 39.435 20.1486 39.5084 20.1278 39.5084C20.1069 39.5084 20.0213 39.5818 19.9376 39.6714C19.8539 39.7611 19.7463 39.8345 19.6985 39.8345C19.6507 39.8345 19.6117 39.8589 19.6117 39.8888C19.6117 39.9187 19.5861 39.9432 19.5549 39.9432C19.5237 39.9432 19.437 40.0043 19.3623 40.079C19.2876 40.1537 19.2042 40.2149 19.1771 40.2149C19.1499 40.2149 19.0666 40.276 18.9919 40.3507C18.9172 40.4255 18.8244 40.4867 18.7856 40.4867C18.747 40.4867 18.6443 40.5478 18.5574 40.6225C18.4706 40.6972 18.3828 40.7583 18.3622 40.7583C18.3416 40.7583 18.2561 40.8173 18.1722 40.8894C18.0884 40.9615 17.9562 41.0532 17.8786 41.0932C17.8009 41.1332 17.6885 41.2103 17.6288 41.2645C17.569 41.3187 17.3904 41.4375 17.2318 41.5284C16.9273 41.703 16.4241 42.0256 16.3137 42.117C16.2776 42.1468 16.2223 42.1713 16.1909 42.1713C16.1595 42.1713 16.0571 42.2446 15.9633 42.3343C15.8695 42.424 15.7475 42.4973 15.6922 42.4973C15.6368 42.4973 15.5915 42.5188 15.5915 42.5451C15.5915 42.5714 15.5182 42.6233 15.4286 42.6604C15.3389 42.6975 15.2656 42.7494 15.2656 42.7756C15.2656 42.8019 15.2213 42.8234 15.1672 42.8234C15.113 42.8234 15.0163 42.8723 14.9521 42.9321C14.888 42.9919 14.809 43.0408 14.7767 43.0408C14.7443 43.0408 14.6653 43.0897 14.6012 43.1495C14.537 43.2093 14.4403 43.2582 14.3861 43.2582C14.332 43.2582 14.2877 43.2826 14.2877 43.3125C14.2877 43.3424 14.2442 43.3669 14.1911 43.3669C14.1379 43.3669 14.0592 43.4158 14.0161 43.4755C13.973 43.5353 13.8957 43.5842 13.8443 43.5842C13.7929 43.5842 13.7358 43.6087 13.7173 43.6386C13.6988 43.6685 13.6417 43.6929 13.5903 43.6929C13.5389 43.6929 13.4616 43.7418 13.4185 43.8016C13.3754 43.8614 13.3138 43.9103 13.2816 43.9103C13.191 43.9103 12.9305 44.0412 12.93 44.0869C12.9298 44.1094 12.8929 44.1277 12.8481 44.1277C12.8033 44.1277 12.7666 44.1521 12.7666 44.182C12.7666 44.2119 12.7315 44.2364 12.6885 44.2364C12.5944 44.2364 11.9864 44.5618 11.9608 44.6259C11.9508 44.6507 11.8958 44.6711 11.8385 44.6711C11.7813 44.6711 11.7344 44.6956 11.7344 44.7255C11.7344 44.7554 11.6917 44.7804 11.6393 44.781C11.587 44.7817 11.4831 44.83 11.4085 44.8885C11.3338 44.947 11.2421 44.9953 11.2047 44.996C11.1674 44.9967 11.1368 45.0216 11.1368 45.0515C11.1368 45.0814 11.0879 45.1059 11.0282 45.1059C10.9684 45.1059 10.9194 45.1242 10.9193 45.1466C10.9192 45.1691 10.8092 45.2326 10.6748 45.2879C10.5405 45.3431 10.4306 45.4074 10.4306 45.4306C10.4306 45.4539 10.3022 45.5279 10.1454 45.5951C9.98848 45.6623 9.84794 45.7342 9.833 45.7547C9.78584 45.8197 8.56813 46.4645 8.49261 46.4645C8.45296 46.4645 8.42052 46.486 8.42052 46.5123C8.42052 46.5385 8.34718 46.5904 8.25755 46.6275C8.16791 46.6646 8.09457 46.7165 8.09457 46.7428C8.09457 46.7691 8.03883 46.7906 7.97076 46.7906C7.90263 46.7906 7.81169 46.8395 7.76861 46.8992C7.72553 46.959 7.64681 47.0079 7.59363 47.0079C7.5405 47.0079 7.49698 47.0324 7.49698 47.0623C7.49698 47.0922 7.44809 47.1166 7.38833 47.1166C7.32857 47.1166 7.27968 47.1411 7.27968 47.171C7.27968 47.2009 7.24301 47.2253 7.19819 47.2253C7.15337 47.2253 7.1167 47.2498 7.1167 47.2797C7.1167 47.3095 7.06781 47.334 7.00805 47.334C6.94829 47.334 6.8994 47.3585 6.8994 47.3883C6.8994 47.4182 6.8505 47.4427 6.79074 47.4427C6.73099 47.4427 6.68209 47.4671 6.68209 47.497C6.68209 47.5269 6.64542 47.5514 6.6006 47.5514C6.55578 47.5514 6.51911 47.5758 6.51911 47.6057C6.51911 47.6356 6.47022 47.6601 6.41046 47.6601C6.3507 47.6601 6.30181 47.6845 6.30181 47.7144C6.30181 47.7443 6.25292 47.7688 6.19316 47.7688C6.1334 47.7688 6.08451 47.7932 6.08451 47.8231C6.08451 47.853 6.04784 47.8774 6.00302 47.8774C5.9582 47.8774 5.92153 47.9019 5.92153 47.9318C5.92153 47.9617 5.87264 47.9861 5.81288 47.9861C5.75312 47.9861 5.70423 48.0106 5.70423 48.0405C5.70423 48.0704 5.65533 48.0948 5.59557 48.0948C5.53582 48.0948 5.48692 48.1193 5.48692 48.1492C5.48692 48.1791 5.43803 48.2035 5.37827 48.2035C5.31851 48.2035 5.26962 48.2234 5.26962 48.2477C5.26962 48.272 5.18405 48.3255 5.07948 48.3665C4.9749 48.4076 4.88934 48.4611 4.88934 48.4854C4.88934 48.5097 4.84044 48.5296 4.78068 48.5296C4.72093 48.5296 4.67198 48.5479 4.67187 48.5703C4.67176 48.5928 4.48841 48.6953 4.26442 48.7982C4.04044 48.9011 3.85714 49.005 3.85714 49.0292C3.85714 49.0533 3.83014 49.073 3.79711 49.073C3.71551 49.073 2.59846 49.6266 2.50872 49.7116C2.46922 49.7489 2.39121 49.7795 2.33536 49.7795C2.27946 49.7795 2.21867 49.804 2.2002 49.8338C2.18173 49.8637 2.1192 49.8882 2.06118 49.8882C2.00316 49.8882 1.95573 49.9126 1.95573 49.9425C1.95573 49.9724 1.90891 49.9969 1.85159 49.9969C1.79433 49.9969 1.73935 50.0152 1.72936 50.0376C1.70785 50.0862 1.2163 50.3229 1.1371 50.3229C1.10678 50.3229 1.02948 50.3719 0.965264 50.4317C0.878668 50.5124 0.837924 50.5233 0.807392 50.4739C0.764855 50.4049 0.927616 50.2143 1.02899 50.2143C1.05957 50.2143 1.15964 50.147 1.25134 50.0648C1.34305 49.9826 1.49625 49.847 1.5918 49.7636C2.2824 49.1605 2.53077 48.9217 3.25738 48.1628C3.46486 47.9461 3.64848 47.7688 3.66537 47.7688C3.68232 47.7688 3.84986 47.6159 4.03767 47.4291C4.22547 47.2423 4.445 47.0409 4.52557 46.9815C4.60613 46.9221 4.67203 46.8531 4.67203 46.8281C4.67203 46.781 5.31748 46.1361 5.94087 45.5606C6.13938 45.3773 6.30181 45.2 6.30181 45.1666C6.30181 45.1332 6.32017 45.1059 6.34261 45.1059C6.3651 45.1059 6.5936 44.9042 6.85045 44.6575C7.10725 44.4109 7.38225 44.1606 7.46151 44.1012C7.54077 44.0418 7.60563 43.9717 7.60563 43.9454C7.60563 43.8978 8.56215 42.9321 8.60925 42.9321C8.62278 42.9321 8.85834 42.712 9.13268 42.443C9.40703 42.174 9.65242 41.9539 9.6779 41.9539C9.70343 41.9539 9.72435 41.9292 9.72435 41.899C9.72435 41.8687 9.91096 41.667 10.139 41.4506C10.3671 41.2342 10.9279 40.6843 11.3853 40.2285C11.8427 39.7726 12.2304 39.3997 12.2469 39.3997C12.2634 39.3997 12.4743 39.2041 12.7156 38.965C12.9569 38.7258 13.1771 38.5302 13.2049 38.5302C13.2328 38.5302 13.2555 38.4813 13.2555 38.4215C13.2555 38.3617 13.277 38.3128 13.3032 38.3128C13.3294 38.3128 13.5348 38.1355 13.7595 37.9188C13.9843 37.7022 14.28 37.427 14.4166 37.3075C14.5533 37.1879 14.8308 36.9376 15.0332 36.7512C15.2357 36.5648 15.4197 36.412 15.4422 36.4115C15.4646 36.4111 15.4829 36.3872 15.4829 36.3583C15.4829 36.3105 15.8315 35.9398 16.9795 34.7669C17.2063 34.5352 17.4146 34.3457 17.4424 34.3457C17.4702 34.3457 17.493 34.3144 17.493 34.2762C17.493 34.2379 17.5419 34.1714 17.6016 34.1283C17.6614 34.0852 17.7103 34.033 17.7103 34.0123C17.7103 33.9916 17.7964 33.8808 17.9015 33.7662C18.2574 33.3784 18.3078 33.3171 18.3078 33.2727C18.3078 33.2484 18.3567 33.1932 18.4165 33.1501C18.4763 33.107 18.5252 33.0501 18.5252 33.0237C18.5252 32.9823 18.6043 32.872 18.8519 32.5682C18.8814 32.5321 18.9054 32.4703 18.9054 32.4307C18.9054 32.3912 18.9543 32.3237 19.0141 32.2806C19.0738 32.2375 19.1227 32.1588 19.1227 32.1055C19.1227 32.0524 19.1472 32.0089 19.1771 32.0089C19.2069 32.0089 19.2314 31.96 19.2314 31.9002C19.2314 31.8404 19.2558 31.7915 19.2857 31.7915C19.3156 31.7915 19.34 31.7531 19.34 31.7061C19.34 31.6591 19.3767 31.584 19.4215 31.5392C19.4663 31.4943 19.503 31.4105 19.503 31.3529C19.503 31.2952 19.5275 31.248 19.5573 31.248C19.5872 31.248 19.6117 31.1991 19.6117 31.1394C19.6117 31.0796 19.6361 31.0307 19.666 31.0307C19.6959 31.0307 19.7203 30.9818 19.7203 30.922C19.7203 30.8622 19.7448 30.8133 19.7746 30.8133C19.8045 30.8133 19.829 30.7399 19.829 30.6503C19.829 30.5606 19.8534 30.4872 19.8833 30.4872C19.9132 30.4872 19.9376 30.3894 19.9376 30.2698C19.9376 30.1503 19.9621 30.0525 19.992 30.0525C20.0218 30.0525 20.0467 29.9974 20.0471 29.9302C20.0475 29.863 20.0853 29.7002 20.1312 29.5686C20.177 29.437 20.2022 29.2972 20.1871 29.2581C20.1722 29.2189 20.1968 29.0454 20.2419 28.8724C20.3653 28.3996 20.2802 27.0187 20.1077 26.6963C20.0739 26.6332 20.0463 26.4944 20.0463 26.3878C20.0463 26.2812 20.0218 26.194 19.992 26.194C19.9621 26.194 19.9376 26.1084 19.9376 26.0038C19.9376 25.8992 19.9132 25.8136 19.8833 25.8136C19.8534 25.8136 19.829 25.7402 19.829 25.6506C19.829 25.5609 19.8045 25.4875 19.7746 25.4875C19.7448 25.4875 19.7203 25.4142 19.7203 25.3245C19.7203 25.2348 19.6959 25.1615 19.666 25.1615C19.6361 25.1615 19.6117 25.1126 19.6117 25.0528C19.6117 24.993 19.5872 24.9441 19.5573 24.9441C19.5275 24.9441 19.503 24.9115 19.503 24.8718C19.503 24.832 19.442 24.6792 19.3674 24.5321C19.2928 24.3851 19.2317 24.2342 19.2316 24.1969C19.2315 24.1595 19.2069 24.1289 19.1771 24.1289C19.1472 24.1289 19.1227 24.0922 19.1227 24.0474C19.1227 24.0026 19.0983 23.9659 19.0684 23.9659C19.0385 23.9659 19.0141 23.917 19.0141 23.8572C19.0141 23.7974 18.9896 23.7485 18.9598 23.7485C18.9299 23.7485 18.9054 23.7022 18.9054 23.6456C18.9054 23.5891 18.8688 23.5287 18.8239 23.5115C18.7791 23.4943 18.7425 23.4428 18.7425 23.397C18.7425 23.3512 18.721 23.3138 18.6947 23.3138C18.6685 23.3138 18.6166 23.2404 18.5795 23.1507C18.5424 23.0611 18.4905 22.9877 18.4643 22.9877C18.438 22.9877 18.4165 22.9508 18.4165 22.9057C18.4165 22.8606 18.3432 22.7469 18.2535 22.6531C18.1639 22.5592 18.0905 22.4494 18.0905 22.409C18.0905 22.3686 18.0539 22.3356 18.0091 22.3356C17.9642 22.3356 17.9276 22.3025 17.9276 22.2621C17.9276 22.2217 17.8542 22.1119 17.7646 22.018C17.6749 21.9242 17.6016 21.8228 17.6016 21.7926C17.6016 21.7624 17.5772 21.7378 17.5473 21.7378C17.5174 21.7378 17.493 21.7011 17.493 21.6563C17.493 21.6114 17.4685 21.5747 17.4386 21.5747C17.4088 21.5747 17.3843 21.5393 17.3843 21.4959C17.3843 21.4526 17.3525 21.3976 17.3137 21.3737C17.2748 21.3498 17.184 21.2446 17.1118 21.14C17.0395 21.0354 16.9552 20.9226 16.9243 20.8894C16.8935 20.8562 16.7949 20.7357 16.7052 20.6216C16.6156 20.5076 16.5117 20.3837 16.4743 20.3463C16.437 20.3088 16.4064 20.2521 16.4064 20.22C16.4064 20.188 16.382 20.1618 16.3521 20.1618C16.3222 20.1618 16.2978 20.1305 16.2978 20.0923C16.2978 20.054 16.2489 19.9875 16.1891 19.9444C16.1294 19.9013 16.0805 19.8369 16.0805 19.8012C16.0805 19.7656 15.9944 19.6426 15.8892 19.5279C15.5194 19.1249 15.4829 19.0782 15.4829 19.0073C15.4829 18.968 15.434 18.9006 15.3742 18.8575C15.3145 18.8144 15.2656 18.7513 15.2656 18.7173C15.2656 18.6832 15.2045 18.6094 15.1298 18.5534C15.0551 18.4972 14.994 18.418 14.994 18.3773C14.994 18.3366 14.9267 18.2378 14.8446 18.1576C14.6994 18.016 14.6588 17.9618 14.4627 17.6482C14.4113 17.566 14.3264 17.4848 14.2741 17.4679C14.2219 17.451 14.1791 17.39 14.1791 17.3322C14.1791 17.2745 14.1546 17.2272 14.1247 17.2272C14.0949 17.2272 14.0704 17.1959 14.0704 17.1577C14.0704 17.1194 14.0215 17.0529 13.9618 17.0098C13.902 16.9667 13.8531 16.9124 13.8531 16.8891C13.8531 16.8658 13.8104 16.8003 13.758 16.7436C13.4731 16.4342 13.3642 16.2952 13.3642 16.2408C13.3642 16.2075 13.3213 16.1407 13.2689 16.0923C13.1402 15.9737 12.7666 15.5055 12.7666 15.4629C12.7666 15.4442 12.7055 15.3677 12.6308 15.293C12.5561 15.2183 12.495 15.1364 12.495 15.111C12.495 15.0694 12.3826 14.9317 12.0615 14.5799C12.0011 14.5137 11.9517 14.4342 11.9517 14.4032C11.9517 14.3723 11.9273 14.3469 11.8974 14.3469C11.8675 14.3469 11.8431 14.3207 11.8431 14.2887C11.8431 14.2567 11.8062 14.1936 11.7611 14.1485C11.716 14.1034 11.693 14.044 11.71 14.0165C11.7283 13.9867 13.5856 13.9665 16.2997 13.9665H20.8587L20.954 14.116Z" fill="black"/>
</svg>
