<svg width="36" height="36" viewBox="0 0 36 36" fill="none" xmlns="http://www.w3.org/2000/svg">
<g clip-path="url(#clip0_0_24)">
<path d="M18 12.75C18.4973 12.75 18.9742 12.9475 19.3258 13.2992C19.6775 13.6508 19.875 14.1277 19.875 14.625V15H16.125V14.625C16.125 14.1277 16.3225 13.6508 16.6742 13.2992C17.0258 12.9475 17.5027 12.75 18 12.75ZM20.625 15V14.625C20.625 13.9288 20.3484 13.2611 19.8562 12.7688C19.3639 12.2766 18.6962 12 18 12C17.3038 12 16.6361 12.2766 16.1438 12.7688C15.6516 13.2611 15.375 13.9288 15.375 14.625V15H12.75V22.5C12.75 22.8978 12.908 23.2794 13.1893 23.5607C13.4706 23.842 13.8522 24 14.25 24H21.75C22.1478 24 22.5294 23.842 22.8107 23.5607C23.092 23.2794 23.25 22.8978 23.25 22.5V15H20.625ZM13.5 15.75H22.5V22.5C22.5 22.6989 22.421 22.8897 22.2803 23.0303C22.1397 23.171 21.9489 23.25 21.75 23.25H14.25C14.0511 23.25 13.8603 23.171 13.7197 23.0303C13.579 22.8897 13.5 22.6989 13.5 22.5V15.75Z" fill="white"/>
</g>
<defs>
<clipPath id="clip0_0_24">
<rect width="12" height="12" fill="white" transform="translate(12 12)"/>
</clipPath>
</defs>
</svg>
