<svg width="36" height="36" viewBox="0 0 36 36" fill="none" xmlns="http://www.w3.org/2000/svg">
<g clip-path="url(#clip0_0_20)">
<path d="M19.74 20.5921C18.7756 21.3413 17.562 21.6947 16.3462 21.5804C15.1304 21.4661 14.0039 20.8928 13.196 19.977C12.3881 19.0613 11.9596 17.8721 11.9977 16.6515C12.0358 15.431 12.5378 14.2708 13.4013 13.4074C14.2647 12.5439 15.4249 12.0419 16.6454 12.0038C17.866 11.9657 19.0552 12.3942 19.9709 13.2021C20.8867 14.01 21.46 15.1365 21.5743 16.3523C21.6886 17.5681 21.3352 18.7817 20.586 19.7461L23.796 22.9441L22.944 23.7961L19.746 20.5921H19.74ZM16.8 20.4001C17.2728 20.4001 17.7409 20.307 18.1777 20.1261C18.6144 19.9452 19.0113 19.68 19.3456 19.3457C19.6799 19.0114 19.9451 18.6146 20.126 18.1778C20.3069 17.741 20.4 17.2729 20.4 16.8001C20.4 16.3274 20.3069 15.8592 20.126 15.4225C19.9451 14.9857 19.6799 14.5888 19.3456 14.2545C19.0113 13.9202 18.6144 13.6551 18.1777 13.4742C17.7409 13.2932 17.2728 13.2001 16.8 13.2001C15.8452 13.2001 14.9296 13.5794 14.2544 14.2545C13.5793 14.9297 13.2 15.8453 13.2 16.8001C13.2 17.7549 13.5793 18.6706 14.2544 19.3457C14.9296 20.0208 15.8452 20.4001 16.8 20.4001Z" fill="white"/>
</g>
<defs>
<clipPath id="clip0_0_20">
<rect width="12" height="12" fill="white" transform="translate(12 12)"/>
</clipPath>
</defs>
</svg>
